<svg width="8" height="7" viewBox="0 0 8 7" fill="none" xmlns="http://www.w3.org/2000/svg">
<path fill-rule="evenodd" clip-rule="evenodd" d="M0.734835 0.234835C0.881282 0.0883883 1.11872 0.0883883 1.26517 0.234835L4 2.96967L6.73483 0.234835C6.88128 0.0883887 7.11872 0.0883888 7.26517 0.234835C7.41161 0.381282 7.41161 0.618719 7.26517 0.765165L4.53033 3.5L7.26517 6.23483C7.41161 6.38128 7.41161 6.61872 7.26517 6.76517C7.11872 6.91161 6.88128 6.91161 6.73483 6.76517L4 4.03033L1.26517 6.76517C1.11872 6.91161 0.881282 6.91161 0.734835 6.76517C0.588388 6.61872 0.588388 6.38128 0.734835 6.23483L3.46967 3.5L0.734835 0.765165C0.588388 0.618719 0.588388 0.381282 0.734835 0.234835Z" fill="#3E424A"/>
</svg>
